<svg fill="none" version="1.1" viewBox="0 0 129.48 23" xmlns="http://www.w3.org/2000/svg">
 <path d="m18.938 1e-4c-3.0838 0-4.8828 1.6054-4.8828 4.625v2.5391c0 1.6704 0.67376 2.5042 2.4727 3.5l3.5332 1.9277c1.8631 1.0279 2.6035 1.6074 2.6035 3.4062v1.7988c0 2.6662-0.93171 3.9824-3.6621 3.9824-2.7305 0-3.6621-1.3162-3.6621-3.9824v-2.5703c0-0.3213-0.19247-0.51367-0.51367-0.51367h-0.25781c-0.3212 0-0.51367 0.19237-0.51367 0.51367v3.084c0 3.1801 1.5091 4.6895 4.9141 4.6895h0.06445c3.405 0 4.9141-1.5415 4.9141-4.6895v-2.8281c0-1.5097-1.0905-2.8268-2.5039-3.5977l-3.6309-1.959c-1.831-0.99581-2.4727-1.414-2.4727-3.2129v-1.5723c0-2.6983 0.93061-3.9199 3.6289-3.9199 2.6984 0 3.6309 1.2216 3.6309 3.9199v2.3125c0 0.32123 0.19247 0.51367 0.51367 0.51367h0.25586c0.3212 0 0.51562-0.19244 0.51562-0.51367v-2.8281c0-3.0196-1.799-4.625-4.8828-4.625h-0.06445zm39.035 0c-3.4051 0-5.0117 1.638-5.0117 4.7539v13.492c0 3.0838 1.6066 4.7539 5.0117 4.7539h0.25586c3.4051 0 5.0117-1.6701 5.0117-4.7539v-13.492c0-3.0838-1.6066-4.7539-5.0117-4.7539zm-52.434 0.25781c-0.2891 0-0.48262 0.12799-0.54688 0.44922l-4.9785 21.457c-0.064246 0.3534 0.095867 0.57812 0.44922 0.57813h0.25781c0.2891 0 0.48262-0.12802 0.54687-0.44922l1.252-5.5254 3.2441-14.166 3.2441 14.166 1.2539 5.5254c0.0642 0.3212 0.25582 0.44922 0.54492 0.44922h0.32226c0.3533 0 0.51352-0.22472 0.44922-0.57813l-5.043-21.457c-0.06424-0.32123-0.25776-0.44922-0.54688-0.44922h-0.44922zm21.045 0c-0.3213 0-0.51367 0.19244-0.51367 0.51367v0.19141c0 0.32122 0.19237 0.51562 0.51367 0.51562h3.8223v20.75c0 0.3213 0.19432 0.51367 0.51562 0.51367h0.25586c0.3213 0 0.51367-0.19237 0.51367-0.51367v-20.75h3.8223c0.3213 0 0.51562-0.1944 0.51562-0.51562v-0.19141c0-0.32123-0.19432-0.51367-0.51562-0.51367h-8.9297zm12.715 0c-0.3212 0-0.51367 0.19244-0.51367 0.51367v21.457c0 0.3213 0.19247 0.51367 0.51367 0.51367h0.25586c0.3212 0 0.51562-0.19237 0.51562-0.51367v-9.3477h4.3359l3.7578 9.4453c0.0964 0.2891 0.28893 0.41602 0.57813 0.41602h0.35352c0.3855 0 0.54647-0.25608 0.41797-0.60938l-3.7578-9.4434c2.1844-0.5139 3.2109-2.089 3.2109-4.5625v-3.1152c0-3.0838-1.6047-4.7539-5.0098-4.7539h-4.6582zm28.828 0c-0.3213 0-0.51367 0.19244-0.51367 0.51367v21.457c0 0.3213 0.19237 0.51367 0.51367 0.51367h0.25781c0.3212 0 0.51367-0.19237 0.51367-0.51367v-9.0898h3.8867c3.405 0 5.0117-1.6701 5.0117-4.7539v-3.373c0-3.0838-1.6067-4.7539-5.0117-4.7539h-4.6582zm13.834 0c-0.3213 0-0.51367 0.19244-0.51367 0.51367v21.457c0 0.3213 0.19237 0.51367 0.51367 0.51367h7.1641c0.3212 0 0.51367-0.19237 0.51367-0.51367v-0.19141c0-0.3212-0.19247-0.51562-0.51367-0.51562h-6.3926v-20.75c0-0.32123-0.19237-0.51367-0.51367-0.51367h-0.25781zm14.928 0c-0.2891 0-0.48258 0.12799-0.54688 0.44922l-4.9785 21.457c-0.0643 0.3534 0.09582 0.57812 0.44922 0.57813h0.25781c0.2891 0 0.48062-0.12802 0.54492-0.44922l1.2539-5.5254 3.2441-14.166 3.2441 14.166 1.2539 5.5254c0.064 0.3212 0.25592 0.44922 0.54492 0.44922h0.32227c0.353 0 0.51321-0.22472 0.44921-0.57813l-5.043-21.457c-0.0642-0.32123-0.25778-0.44922-0.54688-0.44922h-0.44922zm9.8242 0c-0.322 0-0.51367 0.19244-0.51367 0.51367v21.457c0 0.3213 0.19167 0.51367 0.51367 0.51367h0.25781c0.321 0 0.51367-0.19237 0.51368-0.51367v-18.855l7.8379 18.984c0.096 0.257 0.28912 0.38476 0.57812 0.38477h0.35352c0.321 0 0.51367-0.19237 0.51367-0.51367v-21.457c0-0.32123-0.19267-0.51367-0.51367-0.51367h-0.25782c-0.321 0-0.51367 0.19244-0.51367 0.51367v18.855l-7.7754-18.984c-0.096-0.25698-0.28717-0.38477-0.57617-0.38477zm13.322 0c-0.322 0-0.51368 0.19244-0.51368 0.51367v0.19141c0 0.32122 0.19168 0.51562 0.51368 0.51562h3.8223v20.75c0 0.3213 0.19267 0.51367 0.51367 0.51367h0.25782c0.321 0 0.51367-0.19237 0.51367-0.51367v-20.75h3.8242c0.321 0 0.51367-0.1944 0.51367-0.51562v-0.19141c0-0.32123-0.19267-0.51367-0.51367-0.51367h-8.9316zm-61.936 0.96289c2.8268 0 3.8555 1.2203 3.8555 4.1113v12.336c0 2.8911-1.0287 4.1113-3.8555 4.1113-2.8269 0-3.8535-1.2202-3.8535-4.1113v-12.336c0-2.8911 1.0266-4.1113 3.8535-4.1113zm-18.029 0.25781h3.7578c2.8269 0 3.8535 1.2203 3.8535 4.1113v1.959c0 2.891-1.0266 4.1113-3.8535 4.1113h-3.7578v-10.182zm28.828 0h3.7578c2.8268 0 3.8555 1.2203 3.8555 4.1113v2.2168c0 2.891-1.0287 4.1113-3.8555 4.1113h-3.7578v-10.439z" fill="#fff"/>
</svg>
