<svg version="1.1" viewBox="0 0 336.26 322.96" xmlns="http://www.w3.org/2000/svg">
  <g transform="matrix(1.3333 0 0 -1.3333 -395.89 607.26)" fill="#35EF7F">
    <path d="m542.62 357.95c-0.382-1.297-0.856-2.693-1.984-3.439-1.028-0.68-2.353-0.651-3.585-0.598-27.734 1.189-55.468 2.378-83.202 3.568 29.894 28.466 60.076 56.626 90.544 84.477 6.853-27.5 6.234-56.822-1.773-84.008m-5.302-15.132c-6.855-16.504-16.406-31.883-28.162-45.343-1.443-1.652-2.987-3.325-5.01-4.17-2.011-0.842-4.27-0.774-6.447-0.692-32.34 1.221-64.681 2.441-97.021 3.661-1.394 0.053-2.888 0.139-3.999 0.984-3.155 2.4-0.278 7.325 2.617 10.033 13.386 12.518 26.774 25.037 40.16 37.555 1.983 1.854 4.034 3.751 6.568 4.722 2.669 1.023 5.618 0.922 8.473 0.806 26.771-1.085 53.541-2.17 80.312-3.254 0.95-0.039 2.02-0.134 2.623-0.869 0.766-0.933 0.349-2.319-0.114-3.433m-101.95-114.74c-0.504-0.468-1.054-0.958-1.735-1.057-1.402-0.205-2.417 1.258-3.065 2.517-9.78 18.991-19.558 37.981-29.337 56.973-0.332 0.645-0.662 1.439-0.282 2.056 0.387 0.629 1.265 0.681 2.003 0.661 31.482-0.841 62.953-2.077 94.403-3.706-20.662-19.148-41.324-38.296-61.987-57.444m-86.335-14.858c12.928 13.949 12.74 38.037-0.403 51.783-13.144 13.746-37.199 15.012-51.714 2.722 2.222 25.461 26.67 46.901 52.204 45.778 25.533-1.122 48.005-24.625 47.983-50.183-0.022-25.557-22.535-49.021-48.07-50.1m-7.281 33.421c-1.59-3.563-5.752-5.778-9.595-5.106-4.796 0.84-8.258 6.227-7.028 10.938s6.882 7.719 11.477 6.108c4.594-1.612 7.129-7.492 5.146-11.94m-3.91-25.843c-1.72-2.094-4.445-3.321-7.153-3.221-1.286 0.048-2.562 0.381-3.707 0.969-4.303 2.208-6.028 8.308-3.52 12.443 2.509 4.134 8.717 5.421 12.662 2.625 3.946-2.796 4.788-9.08 1.718-12.816m-21.221 23.391c-2.268-3.303-6.957-4.687-10.655-3.144-2.968 1.237-5.131 4.216-5.39 7.421-0.259 3.204 1.397 6.491 4.127 8.19 3.403 2.116 8.254 1.504 11.023-1.392 2.769-2.897 3.163-7.771 0.895-11.075m-8.21-24.045c-3.487-0.232-6.804 2.986-6.678 6.479 0.126 3.489 3.659 6.458 7.118 5.981 3.04-0.419 5.516-3.362 5.407-6.428-0.108-3.067-2.785-5.828-5.847-6.032m9.485 135.12c20.787 19.17 41.574 38.341 62.361 57.511-0.653-31.148-1.682-62.288-3.084-93.411-0.074-1.655-0.295-3.572-1.698-4.452l-56.478 34.098c-1.389 0.839-2.966 2.024-2.82 3.641 0.097 1.064 0.934 1.889 1.719 2.613m69.521 56.127c0.096 2.83 0.228 5.79 1.653 8.237 1.137 1.954 2.987 3.374 4.817 4.703 15.135 11.001 32.164 19.39 50.111 24.682-0.554-28.231-1.472-56.457-2.753-84.665-0.124-2.73-0.266-5.53-1.352-8.038-1.246-2.877-3.609-5.093-5.91-7.223-13.263-12.278-26.527-24.556-39.789-36.834-1.598-1.479-3.329-3.025-5.478-3.37-2.15-0.345-4.725 1.14-4.651 3.316 1.117 33.064 2.235 66.128 3.352 99.192m64.015 35.682c0.037 1.123 0.097 2.315 0.734 3.24 0.819 1.188 2.353 1.608 3.762 1.92 9.306 2.059 18.834 3.106 28.364 3.117 1.296 1e-3 2.792-0.114 3.549-1.167 0.538-0.748 0.522-1.746 0.484-2.667-0.652-15.897-1.303-31.795-1.955-47.691-0.085-2.069-0.183-4.201-1.052-6.08-0.87-1.88-2.43-3.336-3.952-4.741-10.904-10.063-21.808-20.125-32.711-30.188 0.925 28.086 1.851 56.171 2.777 84.257m43.687 3.863c0.035 1.025 0.086 2.111 0.657 2.963 1.09 1.629 3.438 1.645 5.388 1.457 12.102-1.168 24.104-3.376 35.828-6.593 0.491-0.134 1.024-0.301 1.303-0.725 0.543-0.824-0.22-1.864-0.933-2.546-14.386-13.779-28.977-27.346-43.764-40.693 0.507 15.379 1.015 30.758 1.521 46.137" fill="#35EF7F"/>
  </g>
</svg>
