<svg width="330" height="220" version="1.1" viewBox="0 0 87.312 58.208" xmlns="http://www.w3.org/2000/svg">
 <g transform="matrix(-1 0 0 1 34.055 -117.61)">
  <g transform="matrix(.26458 0 0 .26458 -56.696 119.73)" style="fill:none">
   <g transform="translate(-334.29,-64.286)">
    <path transform="translate(13,-8)" d="m364.29 80.285c-1.1046 0-2 0.8954-2 2s0.8954 2 2 2 2-0.8954 2-2-0.8954-2-2-2zm44 0c-1.1046 0-2 0.8954-2 2s0.8954 2 2 2 2-0.8954 2-2-0.8954-2-2-2zm44 0c-1.105 0-2 0.8954-2 2s0.895 2 2 2 2-0.8954 2-2-0.895-2-2-2zm44 0c-1.105 0-2 0.8954-2 2s0.895 2 2 2 2-0.8954 2-2-0.895-2-2-2zm-132 46c-1.1046 0-2 0.8954-2 2s0.8954 2 2 2 2-0.8954 2-2-0.8954-2-2-2zm44 0c-1.1046 0-2 0.8954-2 2s0.8954 2 2 2 2-0.8954 2-2-0.8954-2-2-2zm44 0c-1.105 0-2 0.8954-2 2s0.895 2 2 2 2-0.8954 2-2-0.895-2-2-2zm44 0c-1.105 0-2 0.8954-2 2s0.895 2 2 2 2-0.8954 2-2-0.895-2-2-2zm-132 46c-1.1046 0-2 0.895-2 2s0.8954 2 2 2 2-0.895 2-2-0.8954-2-2-2zm44 0c-1.1046 0-2 0.895-2 2s0.8954 2 2 2 2-0.895 2-2-0.8954-2-2-2zm44 0c-1.105 0-2 0.895-2 2s0.895 2 2 2 2-0.895 2-2-0.895-2-2-2zm44 0c-1.105 0-2 0.895-2 2s0.895 2 2 2 2-0.895 2-2-0.895-2-2-2zm-132 46c-1.1046 0-2 0.895-2 2s0.8954 2 2 2 2-0.895 2-2-0.8954-2-2-2zm44 0c-1.1046 0-2 0.895-2 2s0.8954 2 2 2 2-0.895 2-2-0.8954-2-2-2zm44 0c-1.105 0-2 0.895-2 2s0.895 2 2 2 2-0.895 2-2-0.895-2-2-2zm44 0c-1.105 0-2 0.895-2 2s0.895 2 2 2 2-0.895 2-2-0.895-2-2-2zm-132 46c-1.1046 0-2 0.895-2 2s0.8954 2 2 2 2-0.895 2-2-0.8954-2-2-2zm44 0c-1.1046 0-2 0.895-2 2s0.8954 2 2 2 2-0.895 2-2-0.8954-2-2-2zm44 0c-1.105 0-2 0.895-2 2s0.895 2 2 2 2-0.895 2-2-0.895-2-2-2zm44 0c-1.105 0-2 0.895-2 2s0.895 2 2 2 2-0.895 2-2-0.895-2-2-2z" style="fill:#dedede"/>
    <path d="m649.29 166.29c0 56.333-45.667 102-102 102s-102-45.667-102-102 45.667-102 102-102 102 45.667 102 102z" style="fill-opacity:.25;fill:#35ef7f"/>
   </g>
  </g>
 </g>
</svg>
