<svg width="330" height="220" version="1.1" viewBox="0 0 87.312 58.208" xmlns="http://www.w3.org/2000/svg">
 <g transform="translate(53.257 -117.61)">
  <g transform="matrix(.26458 0 0 .26458 -56.696 119.73)" style="fill:none">
   <path d="m43 8c-1.1046 0-2 0.8954-2 2 0 1.1046 0.8954 2 2 2s2-0.8954 2-2c0-1.1046-0.8954-2-2-2zm44 0c-1.1046 0-2 0.8954-2 2 0 1.1046 0.8954 2 2 2s2-0.8954 2-2c0-1.1046-0.8954-2-2-2zm44 0c-1.105 0-2 0.8954-2 2 0 1.1046 0.895 2 2 2s2-0.8954 2-2c0-1.1046-0.895-2-2-2zm44 0c-1.105 0-2 0.8954-2 2 0 1.1046 0.895 2 2 2s2-0.8954 2-2c0-1.1046-0.895-2-2-2zm-132 46c-1.1046 0-2 0.8954-2 2s0.8954 2 2 2 2-0.8954 2-2-0.8954-2-2-2zm44 0c-1.1046 0-2 0.8954-2 2s0.8954 2 2 2 2-0.8954 2-2-0.8954-2-2-2zm44 0c-1.105 0-2 0.8954-2 2s0.895 2 2 2 2-0.8954 2-2-0.895-2-2-2zm44 0c-1.105 0-2 0.8954-2 2s0.895 2 2 2 2-0.8954 2-2-0.895-2-2-2zm-132 46c-1.1046 0-2 0.895-2 2s0.8954 2 2 2 2-0.895 2-2-0.8954-2-2-2zm44 0c-1.1046 0-2 0.895-2 2s0.8954 2 2 2 2-0.895 2-2-0.8954-2-2-2zm44 0c-1.105 0-2 0.895-2 2s0.895 2 2 2 2-0.895 2-2-0.895-2-2-2zm44 0c-1.105 0-2 0.895-2 2s0.895 2 2 2 2-0.895 2-2-0.895-2-2-2zm-132 46c-1.1046 0-2 0.895-2 2s0.8954 2 2 2 2-0.895 2-2-0.8954-2-2-2zm44 0c-1.1046 0-2 0.895-2 2s0.8954 2 2 2 2-0.895 2-2-0.8954-2-2-2zm44 0c-1.105 0-2 0.895-2 2s0.895 2 2 2 2-0.895 2-2-0.895-2-2-2zm44 0c-1.105 0-2 0.895-2 2s0.895 2 2 2 2-0.895 2-2-0.895-2-2-2zm-132 46c-1.1046 0-2 0.895-2 2s0.8954 2 2 2 2-0.895 2-2-0.8954-2-2-2zm44 0c-1.1046 0-2 0.895-2 2s0.8954 2 2 2 2-0.895 2-2-0.8954-2-2-2zm44 0c-1.105 0-2 0.895-2 2s0.895 2 2 2 2-0.895 2-2-0.895-2-2-2zm44 0c-1.105 0-2 0.895-2 2s0.895 2 2 2 2-0.895 2-2-0.895-2-2-2z" style="fill:#dedede"/>
   <path d="m315 102c0 56.333-45.667 102-102 102s-102-45.667-102-102c0-56.333 45.667-102 102-102s102 45.667 102 102z" style="fill-opacity:.25;fill:#35ef7f"/>
  </g>
 </g>
</svg>
