<svg width="330" height="220" version="1.1" viewBox="0 0 87.312 58.208" xmlns="http://www.w3.org/2000/svg">
 <g transform="translate(53.257 -117.61)">
  <g transform="matrix(.26458 0 0 .26458 -56.696 119.73)" style="fill:none">
   <path transform="translate(13 -8)" d="m73 86c-1.1046 0-2 0.8954-2 2s0.8954 2 2 2 2-0.8954 2-2-0.8954-2-2-2zm46 0c-1.105 0-2 0.8954-2 2s0.895 2 2 2 2-0.8954 2-2-0.895-2-2-2zm46 0c-1.105 0-2 0.8954-2 2s0.895 2 2 2 2-0.8954 2-2-0.895-2-2-2zm46 0c-1.105 0-2 0.8954-2 2s0.895 2 2 2 2-0.8954 2-2-0.895-2-2-2zm46 0c-1.105 0-2 0.8954-2 2s0.895 2 2 2 2-0.8954 2-2-0.895-2-2-2zm-184 44c-1.1046 0-2 0.895-2 2s0.8954 2 2 2 2-0.895 2-2-0.8954-2-2-2zm46 0c-1.105 0-2 0.895-2 2s0.895 2 2 2 2-0.895 2-2-0.895-2-2-2zm46 0c-1.105 0-2 0.895-2 2s0.895 2 2 2 2-0.895 2-2-0.895-2-2-2zm46 0c-1.105 0-2 0.895-2 2s0.895 2 2 2 2-0.895 2-2-0.895-2-2-2zm46 0c-1.105 0-2 0.895-2 2s0.895 2 2 2 2-0.895 2-2-0.895-2-2-2z" style="fill:#dedede"/>
   <path d="m280 212h-204c0-56.333 45.667-102 102-102s102 45.667 102 102z" style="fill-opacity:.25;fill:#35ef7f"/>
  </g>
 </g>
</svg>
