<svg width="330" height="220" version="1.1" viewBox="0 0 87.312 58.208" xmlns="http://www.w3.org/2000/svg">
 <g transform="translate(53.257 -117.61)">
  <g transform="matrix(.26458 0 0 .26458 -56.696 119.73)" style="fill:none">
   <g transform="translate(-35.01 -208.56)">
    <path d="m315.01 200.56c0 56.333-45.667 102-102 102-56.333 0-102-45.667-102-102z" style="fill-opacity:.25;fill:#35ef7f;stroke-width:.99999"/>
    <path transform="translate(13 -8)" d="m108.01 294.56c-1.1046 0-2 0.8954-2 2 0 1.1046 0.89541 2 2 2 1.1046 0 2-0.89541 2-2 0-1.1046-0.8954-2-2-2zm45.998 0c-1.105 0-2 0.8954-2 2 0 1.1046 0.89501 2 2 2s2-0.89541 2-2c0-1.1046-0.89501-2-2-2zm46 0c-1.105 0-2 0.8954-2 2 0 1.1046 0.89501 2 2 2 1.105 0 2-0.89541 2-2 0-1.1046-0.895-2-2-2zm46 0c-1.105 0-2 0.8954-2 2 0 1.1046 0.89501 2 2 2s2-0.89541 2-2c0-1.1046-0.89501-2-2-2zm46 0c-1.105 0-2 0.8954-2 2 0 1.1046 0.89501 2 2 2 1.105 0 2-0.89541 2-2 0-1.1046-0.895-2-2-2zm-184 44c-1.1046 0-2 0.895-2 2 0 1.105 0.89541 2 2 2 1.1046 0 2-0.89501 2-2 0-1.105-0.8954-2-2-2zm45.998 0c-1.105 0-2 0.895-2 2 0 1.105 0.89501 2 2 2s2-0.89501 2-2c0-1.105-0.89501-2-2-2zm46 0c-1.105 0-2 0.895-2 2 0 1.105 0.89501 2 2 2 1.105 0 2-0.89501 2-2 0-1.105-0.895-2-2-2zm46 0c-1.105 0-2 0.895-2 2 0 1.105 0.89501 2 2 2s2-0.89501 2-2c0-1.105-0.89501-2-2-2zm46 0c-1.105 0-2 0.895-2 2 0 1.105 0.89501 2 2 2 1.105 0 2-0.89501 2-2 0-1.105-0.895-2-2-2z" style="fill:#dedede;stroke-width:.99999"/>
   </g>
  </g>
 </g>
</svg>
